<svg width="78" height="61" viewBox="0 0 78 61" fill="none" xmlns="http://www.w3.org/2000/svg">
<g id="Frame" clip-path="url(#clip0_480_2840)">
<g id="Group">
<g id="Layer_1_1_">
<g id="Group_2">
<path id="Vector" fill-rule="evenodd" clip-rule="evenodd" d="M31.3014 39.8106L25.1508 32.7025C24.7824 32.303 24.6468 31.7826 24.6689 31.2904C24.6911 30.7953 24.8988 30.3256 25.2643 29.9712C25.2865 29.9487 25.2865 29.9487 25.3114 29.9487C25.3114 29.9262 25.3335 29.9262 25.3335 29.9008C25.724 29.5717 26.2059 29.4311 26.6656 29.4536C26.6656 29.4536 26.6656 29.4536 26.6877 29.4536C27.1696 29.4789 27.6514 29.7124 27.9976 30.1146L28.7785 31.0091C28.7315 30.7278 28.6872 30.4437 28.6872 30.1849C28.6872 30.1624 28.6622 30.1371 28.6622 30.1146C28.5238 29.3383 28.3631 28.5591 28.1111 27.8306C27.8813 27.1695 27.6071 26.5591 27.1945 26.0163C26.1837 25.9234 25.2449 25.5212 24.4861 24.9108L24.3477 24.9586L23.9572 25.1724C20.7448 27.0542 20.515 30.2806 20.31 33.4816C20.2879 33.9064 20.2408 34.3058 20.2186 34.7305L20.1965 36.0245C20.083 38.5898 19.9666 41.909 22.7664 42.1453H22.8135H30.4318C30.7087 42.1453 30.9358 42.3816 30.9358 42.6628C30.9358 42.9441 30.7087 43.1804 30.4318 43.1804H22.7858H22.7636C21.8221 43.2282 20.9968 43.653 20.4014 44.3112C20.2657 44.4293 20.1494 44.5953 20.0359 44.7584H28.2967C28.5708 44.7584 28.7785 44.9694 28.7785 45.2507C28.7785 45.5348 28.5708 45.7683 28.2967 45.7683H19.5734C19.5042 45.9567 19.482 46.1705 19.4571 46.3562H34.0291C35.015 46.238 35.8652 45.6754 36.4163 44.9441C36.6904 44.5925 36.8732 44.1931 37.0117 43.7908C37.0587 43.5798 37.103 43.3886 37.1252 43.1776V43.1551C37.1501 42.9413 37.1252 42.7304 37.103 42.5194C37.0781 42.2606 37.0117 42.0018 36.8953 41.7655V41.743C36.7126 41.3408 36.4135 40.9639 36.023 40.6348L34.9679 39.8584L34.3947 39.4562C34.3033 39.6221 34.187 39.7881 34.0513 39.9259C34.0513 39.9512 34.0264 39.9512 34.0264 39.9737C34.0042 39.9737 34.0042 39.9737 34.0042 39.9737C33.982 39.9962 33.9571 40.0216 33.9571 40.0216C33.5667 40.3507 33.0848 40.4913 32.6029 40.4688C32.1266 40.4463 31.6448 40.2353 31.3014 39.8106ZM22.351 34.7249C22.351 35.0062 22.1461 35.22 21.8691 35.22C21.595 35.22 21.3651 35.0062 21.3651 34.7249L21.4122 34.1342L21.4593 33.4057C21.6199 31.1469 21.7584 28.8629 22.9049 26.9333C23.0433 26.697 23.3424 26.6267 23.5723 26.7673C23.8243 26.9079 23.8935 27.2145 23.755 27.448C22.7442 29.192 22.6086 31.3354 22.4479 33.476C22.4202 33.8754 22.3732 34.303 22.351 34.7249ZM34.2147 41.3633C33.9848 41.2002 33.9627 40.8682 34.1233 40.6573C34.2839 40.4435 34.6051 40.3985 34.835 40.5616C35.591 41.1748 35.9815 41.9737 36.0507 42.7726C36.1421 43.667 35.8679 44.5869 35.3169 45.3154C35.1562 45.5517 34.835 45.5995 34.6273 45.411C34.3974 45.2451 34.3531 44.916 34.5359 44.705C34.9264 44.1649 35.1313 43.5067 35.0621 42.8935C35.0178 42.3281 34.7436 41.788 34.2147 41.3633Z" fill="#80DEEA"/>
<path id="Vector_2" fill-rule="evenodd" clip-rule="evenodd" d="M27.4686 25.0262H27.4908C27.4686 25.0262 27.4686 25.0262 27.4686 25.0262ZM31.7583 20.8097C31.7583 20.2696 31.6669 19.7267 31.4841 19.2569C31.3235 18.8575 31.0937 18.4806 30.8417 18.1515L24.0264 18.8322C23.8879 19.091 23.7966 19.3498 23.7052 19.6564C23.6138 20.0108 23.5446 20.4102 23.5446 20.8097C23.5446 21.9629 24.0043 23.0234 24.7603 23.7772C24.8074 23.8476 24.8517 23.8954 24.9209 23.9432C24.9209 23.9657 24.9431 23.9657 24.968 23.991C25.6354 24.5789 26.5049 24.9783 27.4686 25.0037C27.5157 25.029 27.5822 25.029 27.6514 25.029C28.4988 25.029 29.2798 24.7702 29.9222 24.3229C30.1521 24.157 30.3598 23.9938 30.5647 23.7801C31.1158 23.2175 31.5063 22.4833 31.6669 21.6845L31.7361 21.2597L31.7583 20.8097Z" fill="#FFCEB4"/>
<path id="Vector_3" fill-rule="evenodd" clip-rule="evenodd" d="M32.6777 39.4562C32.9076 39.4815 33.1346 39.4084 33.3202 39.2452C33.1374 39.3859 32.9076 39.4815 32.6777 39.4562ZM26.6877 29.4508H26.6656C26.6656 29.4508 26.6656 29.4508 26.6877 29.4508ZM34.4002 39.4562C34.3088 39.6475 34.1925 39.7881 34.0568 39.9259C34.126 39.8556 34.1953 39.7881 34.2617 39.6925C34.306 39.6221 34.3531 39.5265 34.4002 39.4562ZM28.7758 31.0063L27.9948 30.1118C27.4437 29.4761 26.7791 29.3355 26.1809 29.4986C25.6077 29.6392 25.0788 30.064 24.8267 30.6069C24.7354 30.8178 24.6883 31.0541 24.6661 31.2904C24.644 31.7827 24.7797 32.303 25.148 32.7025L31.2986 39.8106C31.39 39.9062 31.4814 39.9991 31.5728 40.0694C31.8718 40.3057 32.2374 40.4463 32.6057 40.4716C33.0876 40.4941 33.5694 40.3535 33.9377 40.0244H33.9599C33.9599 39.9991 33.982 39.9991 34.007 39.9991C34.1676 39.8359 34.306 39.6474 34.3974 39.459C34.5359 39.2002 34.6024 38.9414 34.6273 38.6601V38.6348C34.6273 38.5645 34.6273 38.4717 34.6273 38.3985C34.6051 37.9738 34.4445 37.5744 34.1676 37.2228L33.5251 36.4914L32.7912 35.6447L30.0607 32.4887L28.8228 31.0541L28.7758 31.0063ZM32.5171 36.843L29.2355 33.0766C29.2355 33.0766 29.2355 33.0766 29.2576 33.0991L32.5171 36.843ZM34.0097 39.9766C34.0097 39.9766 34.0319 39.9512 34.0568 39.9287L34.0319 39.9766C34.0097 39.9766 34.0097 39.9766 34.0097 39.9766Z" fill="#FFCEB4"/>
<path id="Vector_4" fill-rule="evenodd" clip-rule="evenodd" d="M24.1649 17.797L30.4761 17.1613C30.454 16.9729 30.454 16.8069 30.429 16.6213L30.4069 16.0306C30.3626 15.6311 30.2684 15.3948 29.9029 15.4427L27.4243 15.7014C27.4243 15.7014 27.4243 15.7014 27.4022 15.7014L24.007 16.0784C23.9157 16.1009 23.9157 16.3147 23.9378 16.5706C23.96 16.8294 24.0292 17.136 24.0984 17.4173L24.1649 17.797Z" fill="#DCE775"/>
<path id="Vector_5" d="M29.5567 29.7799L33.3202 34.2074C33.6636 34.5843 33.8242 35.0793 33.802 35.5744C33.7799 36.0442 33.5971 36.5392 33.2288 36.8937C33.0433 37.0821 32.7248 37.0821 32.5392 36.8937L29.2355 33.0794C29.1662 33.0091 29.1192 32.9134 29.1192 32.8206L29.0278 32.3734C28.8893 31.6448 28.7065 30.7728 28.6595 30.1146C28.6595 29.8333 28.8672 29.5971 29.1413 29.5746C29.3047 29.5689 29.4653 29.6421 29.5567 29.7799ZM32.5863 34.8656L29.925 31.7348L30.0635 32.4887L32.794 35.6447L32.8189 35.5266C32.8162 35.2903 32.7469 35.054 32.5863 34.8656Z" fill="#044269"/>
<path id="Vector_6" d="M34.4002 38.2326C34.7907 38.4914 35.1562 38.7502 35.5467 39.0089C35.915 39.2677 36.2806 39.549 36.6267 39.8331C37.5212 40.5392 37.9809 41.4561 38.0944 42.3985C38.1637 42.961 38.1166 43.5292 37.956 44.0693C37.7954 44.6122 37.5434 45.1298 37.2 45.577C36.4883 46.5165 35.411 47.2254 34.1261 47.3885H19.0002C18.8395 47.3885 18.7011 47.3182 18.5875 47.2254L18.5405 47.1297C18.4712 47.0341 18.4269 46.9159 18.4269 46.8006C18.4269 45.5545 18.9088 44.4237 19.6897 43.5996C20.0553 43.2001 20.4707 42.8682 20.9525 42.6347C19.0029 41.4111 19.0943 38.4182 19.1857 35.971C19.2079 35.5463 19.23 35.1469 19.23 34.7249C19.23 34.4887 19.23 34.348 19.2771 34.1117L19.3214 33.4057C19.5512 29.9234 19.7811 26.4382 23.4532 24.2723C23.636 24.1795 23.7993 24.0838 23.9572 24.0135H24.0043C24.1649 23.9432 24.3477 23.8729 24.4861 23.8504C24.6717 23.8025 24.8544 23.8757 24.968 23.991C25.2892 24.2976 25.6797 24.5311 26.1145 24.7195C26.5271 24.8827 26.9868 25.0008 27.4687 25.0261C27.6071 25.0261 27.7428 25.0965 27.8342 25.2146C29.1884 26.8855 29.5096 29.0289 29.8309 31.0991C29.9223 31.6167 29.9915 32.1118 30.0829 32.6293C30.1521 32.9106 29.9693 33.1722 29.6924 33.2426C29.5096 33.2679 29.349 33.1947 29.2355 33.0794L27.2388 30.7954C27.0782 30.5816 26.8483 30.4887 26.6185 30.4662C26.3886 30.4662 26.1366 30.5366 25.9539 30.7025C25.7711 30.8657 25.6797 31.1048 25.6548 31.3607C25.6548 31.597 25.724 31.8333 25.8846 32.019L32.0574 39.1524C32.218 39.3381 32.4479 39.4337 32.6777 39.4562C32.9076 39.4815 33.1596 39.3859 33.3423 39.2227C33.4337 39.1524 33.503 39.0568 33.55 38.9611C33.5971 38.843 33.6193 38.7277 33.6414 38.6095C33.6636 38.3254 33.9156 38.137 34.1676 38.1623C34.2617 38.1623 34.3282 38.1876 34.4002 38.2326ZM34.9735 39.8584L34.4002 39.4562C34.3088 39.6475 34.1704 39.8331 34.0097 39.9963C33.5971 40.3479 33.1153 40.4913 32.6085 40.4688C32.1266 40.4435 31.6448 40.2325 31.3014 39.8331L25.1508 32.6997C24.8074 32.3002 24.6467 31.7799 24.6689 31.2876C24.6911 30.7925 24.9209 30.2975 25.3114 29.9431C25.7019 29.5914 26.1837 29.4255 26.6656 29.448H26.6877C27.1696 29.4733 27.6514 29.7068 27.9976 30.109L28.8228 31.0485C28.5487 29.237 28.2247 27.4002 27.1945 26.0107C26.6905 25.9628 26.1837 25.8475 25.7489 25.659C25.2892 25.4706 24.8766 25.2118 24.4861 24.9052L24.3477 24.953C24.2092 25.0233 24.0735 25.0937 23.9572 25.1668C20.7448 27.0486 20.515 30.275 20.31 33.476C20.2879 33.9008 20.2408 34.3002 20.2186 34.7249C20.2186 35.0765 20.1965 35.5491 20.1965 36.0189C20.0829 38.6095 19.9666 41.9259 22.8135 42.1397C23.0433 42.165 23.2483 42.376 23.2732 42.6347C23.2732 42.916 23.0655 43.1523 22.7913 43.1748C21.8498 43.2226 21.0245 43.6474 20.4042 44.3056C19.9002 44.8457 19.5568 45.5798 19.4626 46.3534H34.0347C35.0205 46.2352 35.8707 45.6726 36.4218 44.9413C36.696 44.5897 36.8787 44.1903 37.0172 43.788C37.1307 43.3633 37.1778 42.9413 37.1086 42.5166C37.0394 41.8331 36.696 41.1749 36.0286 40.632C35.6852 40.376 35.339 40.1172 34.9735 39.8584Z" fill="#044269"/>
<path id="Vector_7" d="M31.3927 17.257C31.8303 17.7267 32.1737 18.2696 32.4008 18.88C32.6306 19.4707 32.7441 20.1289 32.7441 20.8096C32.7441 22.247 32.1931 23.5662 31.2543 24.5057C30.3349 25.4481 29.0499 26.0359 27.6514 26.0359C26.2501 26.0359 24.9652 25.4452 24.0486 24.5057C23.1319 23.5409 22.5559 22.247 22.5559 20.8096C22.5559 20.3174 22.6251 19.8223 22.7387 19.3751C22.8771 18.9053 23.0821 18.4553 23.3119 18.0333C23.4476 17.8449 23.6775 17.7745 23.863 17.8224L30.7696 17.1388C30.8167 17.091 30.8832 17.0685 30.9773 17.0685C31.1407 17.046 31.3013 17.1388 31.3927 17.257ZM31.4841 19.2569C31.3235 18.8575 31.0936 18.4806 30.8416 18.1515L24.0264 18.8322C23.8879 19.091 23.7966 19.3497 23.7052 19.6564C23.6138 20.0108 23.5445 20.4102 23.5445 20.8096C23.5445 21.9629 24.0043 23.0234 24.7603 23.7772C25.4941 24.5536 26.5271 25.0261 27.6514 25.0261C28.7979 25.0261 29.8087 24.5536 30.5647 23.7772C31.2986 23.0262 31.7583 21.9657 31.7583 20.8096C31.7583 20.2696 31.6669 19.7267 31.4841 19.2569Z" fill="#044269"/>
<path id="Vector_8" d="M22.7636 43.1776C22.4895 43.1776 22.2596 42.9413 22.2596 42.6601C22.2596 42.376 22.4895 42.1425 22.7636 42.1425H30.429C30.706 42.1425 30.933 42.3788 30.933 42.6601C30.933 42.9413 30.706 43.1776 30.429 43.1776H22.7636Z" fill="#044269"/>
<path id="Vector_9" d="M23.888 15.0658L29.8087 14.4075C30.9801 14.2894 31.2764 14.9251 31.3928 15.9152C31.4149 16.129 31.4149 16.34 31.4398 16.5735V16.596C31.4398 16.9026 31.462 17.2317 31.5091 17.5608C31.5561 17.8196 31.3484 18.0783 31.0964 18.1262L23.7993 18.8547C23.5252 18.8772 23.2953 18.6887 23.2732 18.4075C23.2261 18.1965 23.1818 17.9124 23.1126 17.6536C23.0433 17.3245 22.9741 16.9954 22.9519 16.6663C22.855 15.8449 23.0156 15.1614 23.888 15.0658ZM29.9001 15.4427L24.0043 16.0784C23.9129 16.1009 23.9129 16.3147 23.935 16.5706C23.9572 16.8294 24.0264 17.136 24.0957 17.4173L24.1649 17.7942L30.4761 17.1585L30.429 16.6185C30.429 16.4047 30.4069 16.1937 30.4069 16.0278C30.3598 15.6311 30.2684 15.3977 29.9001 15.4427Z" fill="#044269"/>
<path id="Vector_10" d="M25.2643 29.9684L25.3335 29.8981C25.724 29.5689 26.2059 29.4283 26.6877 29.4508C27.1696 29.4761 27.6514 29.7096 27.9976 30.1118L34.1704 37.2228C34.5138 37.6222 34.6522 38.1398 34.6301 38.6348V38.6602C34.6079 39.1552 34.3781 39.625 34.0097 39.9794C33.5971 40.3535 33.1153 40.497 32.6085 40.4745C32.1266 40.4491 31.6448 40.2157 31.3014 39.8134L25.1508 32.7053C24.7824 32.3059 24.6467 31.7855 24.6689 31.2932C24.6911 30.7954 24.8988 30.3228 25.2643 29.9684ZM26.6185 30.4634C26.3886 30.4634 26.1588 30.5338 25.976 30.6744L25.9539 30.6997C25.7711 30.8629 25.6797 31.102 25.6548 31.3579C25.6548 31.5942 25.724 31.8305 25.8846 32.0161L32.0574 39.1496C32.218 39.3352 32.4479 39.4309 32.6528 39.4534H32.6777C32.9076 39.4787 33.1346 39.3831 33.3202 39.2424L33.3673 39.1946C33.5279 39.0286 33.6193 38.8177 33.6414 38.5814C33.6636 38.3451 33.5722 38.0863 33.4116 37.8979L27.2388 30.7897C27.0782 30.5816 26.8483 30.4859 26.6185 30.4634Z" fill="#044269"/>
<path id="Vector_11" d="M34.2147 41.3633C33.9848 41.2002 33.9627 40.8682 34.1233 40.6573C34.2839 40.4435 34.6051 40.3985 34.835 40.5616C35.591 41.1748 35.9815 41.9737 36.0507 42.7726C36.1421 43.6671 35.8679 44.5869 35.3168 45.3154C35.1562 45.5517 34.835 45.5995 34.6273 45.411C34.3974 45.2451 34.3531 44.916 34.5359 44.705C34.9264 44.1649 35.1313 43.5067 35.0621 42.8935C35.0178 42.3281 34.7436 41.7881 34.2147 41.3633Z" fill="#044269"/>
<path id="Vector_12" d="M19.2078 45.7655C18.9337 45.7655 18.726 45.5292 18.726 45.2479C18.726 44.9666 18.9337 44.7556 19.2078 44.7556H28.2967C28.5708 44.7556 28.7785 44.9666 28.7785 45.2479C28.7785 45.532 28.5708 45.7655 28.2967 45.7655H19.2078Z" fill="#044269"/>
<path id="Vector_13" fill-rule="evenodd" clip-rule="evenodd" d="M30.0607 32.4887L32.7912 35.6447L32.8162 35.5266C32.8162 35.2931 32.7469 35.0568 32.5863 34.8684L29.9472 31.763L30.0607 32.4887Z" fill="#FFCEB4"/>
<path id="Vector_14" fill-rule="evenodd" clip-rule="evenodd" d="M52.6443 11.5834C52.6443 13.3724 53.3311 14.9983 54.4804 16.174C54.5717 16.2697 54.6631 16.3372 54.7545 16.4328L54.7767 16.4553C55.8318 17.3976 57.186 17.9855 58.6537 18.0559C58.7451 18.0559 58.8614 18.0812 58.9528 18.0812C60.6974 18.0812 62.2787 17.3526 63.428 16.174C64.5772 14.9983 65.2889 13.3724 65.2889 11.5834C65.2889 10.7368 65.1283 9.93508 64.8514 9.18123C64.5994 8.5202 64.231 7.93231 63.7963 7.39224L53.4225 8.42738C53.1926 8.85212 53.0099 9.32187 52.8714 9.79162C52.7108 10.3598 52.6443 10.9702 52.6443 11.5834Z" fill="#FECCAB"/>
<path id="Vector_15" fill-rule="evenodd" clip-rule="evenodd" d="M53.6053 24.2498C53.536 24.5311 53.2619 24.7195 52.9628 24.6492C52.6886 24.5536 52.5252 24.2723 52.5972 23.9657L52.8492 23.1893C53.3062 21.7773 53.7659 20.3652 54.7988 19.3273C55.0065 19.1163 55.3499 19.1163 55.5548 19.3273C55.7625 19.5382 55.7376 19.8927 55.5327 20.1036C54.6825 20.9503 54.2699 22.247 53.8573 23.5156L53.6053 24.2498ZM55.6019 25.3553C55.6019 25.3299 55.6241 25.3299 55.6241 25.3074C55.6241 25.3328 55.6019 25.3328 55.6019 25.3553ZM53.3283 17.8674C48.4405 20.7618 48.1221 25.614 47.798 30.4634C47.751 30.9585 47.7288 31.4508 47.6845 31.9458L47.6596 32.3002C47.6596 32.8656 47.6374 33.5238 47.6125 34.2299C47.474 38.1623 47.2913 43.2226 51.6751 43.5996H51.7H63.0818C63.3809 43.5996 63.608 43.8358 63.608 44.1396C63.608 44.4462 63.3809 44.6825 63.0818 44.6825H51.7C51.6751 44.6825 51.6751 44.6825 51.6529 44.6825C50.6892 44.7275 49.7947 45.0341 49.0359 45.5517H54.6825C54.9594 45.5517 55.2087 45.788 55.2087 46.0918C55.2087 46.3984 54.9567 46.6318 54.6825 46.6318H47.798C47.5931 46.8906 47.4076 47.1719 47.2248 47.456H59.8943C60.1934 47.456 60.4233 47.7148 60.4233 47.9961C60.4233 48.3027 60.1934 48.539 59.8943 48.539H46.7457C46.6072 48.9609 46.538 49.4081 46.4909 49.8807H68.4764C70.0133 49.6669 71.3232 48.8203 72.1706 47.6923C72.5832 47.1269 72.9045 46.5137 73.09 45.8527C73.2728 45.217 73.342 44.5588 73.2728 43.9005C73.1343 42.8176 72.5832 41.7824 71.5503 40.9555C71.0241 40.5335 70.5173 40.1313 69.9663 39.7572L68.9333 39.0511C68.9112 39.099 68.8862 39.1468 68.8641 39.1918C68.7256 39.4731 68.5207 39.7319 68.2908 39.9681L68.2687 39.9906C68.2465 39.9906 68.2465 40.016 68.2216 40.016C67.6927 40.4857 67.0059 40.6995 66.3634 40.6517C65.6988 40.6264 65.0563 40.3226 64.5744 39.7825L55.3721 29.1414C54.8902 28.6013 54.6825 27.8953 54.7074 27.2118C54.7545 26.5282 55.0287 25.87 55.5548 25.3749C55.5548 25.3749 55.5548 25.3749 55.577 25.3749C55.577 25.3524 55.577 25.3524 55.5992 25.3524L55.6435 25.3046C56.1724 24.8349 56.837 24.6464 57.4795 24.6689C58.1441 24.7167 58.7866 24.998 59.2685 25.5381C59.6589 25.9853 60.0273 26.4326 60.3928 26.8798C60.5756 27.0936 60.7611 27.3271 60.9439 27.538C60.9439 27.4424 60.9217 27.3524 60.9217 27.2314C60.8525 26.9023 60.8054 26.5957 60.7611 26.2919C60.3485 23.9854 59.4319 20.5931 58.374 19.1332C56.8121 18.9925 55.4136 18.3821 54.2893 17.437L53.9459 17.5552C53.7216 17.6564 53.5388 17.7521 53.3283 17.8674ZM50.8526 32.3002C50.8526 32.6068 50.6227 32.8403 50.3236 32.8403C50.0246 32.8403 49.7947 32.604 49.7947 32.3002L49.8196 31.8755L49.8667 31.4761L49.9332 30.3678C50.163 27.0261 50.3929 23.6591 52.0461 20.8096C52.2068 20.5734 52.528 20.4805 52.78 20.6465C53.032 20.7871 53.1012 21.1191 52.9628 21.3778C51.4258 23.991 51.196 27.2174 50.9883 30.4409C50.944 30.9585 50.919 31.4536 50.872 31.9486L50.8526 32.3002ZM68.8668 42.0468C68.637 41.8584 68.5927 41.5293 68.7755 41.293C68.9361 41.0567 69.2822 41.0117 69.5093 41.2002C70.5893 42.0694 71.1377 43.1776 71.254 44.3534C71.3924 45.6248 70.9771 46.9216 70.1961 47.9792C70.0355 48.2155 69.6921 48.2605 69.4622 48.072C69.2324 47.9089 69.1881 47.5545 69.3709 47.3182C69.9912 46.4715 70.3124 45.4364 70.221 44.4462C70.1296 43.5771 69.6921 42.7276 68.8668 42.0468Z" fill="#64B4F3"/>
<path id="Vector_16" d="M35.0177 54.5247C35.8901 54.5247 36.671 54.9017 37.2443 55.4671V55.4924C37.8175 56.0803 38.1609 56.8819 38.1609 57.7511C38.1609 58.6456 37.8175 59.4698 37.2443 60.0605C36.671 60.6231 35.8901 61.0028 35.0177 61.0028C34.1454 61.0028 33.3672 60.6259 32.7912 60.0605C32.218 59.4698 31.8497 58.6456 31.8497 57.7511C31.8497 56.8819 32.2152 56.055 32.7912 55.4671L32.8162 55.4446C33.3894 54.8764 34.1703 54.5247 35.0177 54.5247ZM36.4855 56.2434C36.1199 55.8665 35.591 55.6077 35.0177 55.6077C34.4445 55.6077 33.9405 55.844 33.55 56.2209L33.5279 56.2462C33.1595 56.6232 32.9325 57.1632 32.9325 57.7539C32.9325 58.3671 33.1623 58.8847 33.5279 59.2841C33.9183 59.6611 34.4473 59.9198 35.0177 59.9198C35.591 59.9198 36.1199 59.6611 36.4855 59.2841C36.8759 58.9072 37.1058 58.3643 37.1058 57.7539C37.1058 57.1604 36.8759 56.6203 36.4855 56.2434Z" fill="#044269"/>
<path id="Vector_17" d="M15.3751 11.9603C15.9262 11.9603 16.4081 12.1966 16.7515 12.5482C17.0949 12.8998 17.3247 13.3949 17.3247 13.9603C17.3247 14.5004 17.0949 14.9954 16.7515 15.3498C16.4081 15.724 15.9262 15.9377 15.3751 15.9377C14.849 15.9377 14.3671 15.724 14.021 15.3498H13.996C13.6526 14.9729 13.4449 14.5032 13.4449 13.9603C13.4449 13.3949 13.6526 12.8998 14.0182 12.5482L14.0403 12.5257C14.3893 12.1713 14.8711 11.9603 15.3751 11.9603ZM15.9955 13.3246C15.8348 13.1614 15.6272 13.0433 15.3751 13.0433C15.1453 13.0433 14.9376 13.1361 14.7797 13.3021L14.7576 13.3246C14.597 13.4652 14.5056 13.7015 14.5056 13.9603C14.5056 14.1966 14.597 14.43 14.7576 14.5707V14.5932C14.9182 14.7591 15.1481 14.852 15.3751 14.852C15.6272 14.852 15.8348 14.7563 15.9955 14.5932C16.1561 14.43 16.2696 14.1937 16.2696 13.9575C16.2696 13.7015 16.1561 13.468 15.9955 13.3246Z" fill="#044269"/>
<path id="Vector_18" d="M72.6525 23.991C73.4085 23.991 74.0759 24.2976 74.5578 24.7927C75.0396 25.2877 75.3387 25.9684 75.3387 26.7223C75.3387 27.4733 75.0396 28.1822 74.5578 28.6744L74.5356 28.6969C74.0537 29.1667 73.3891 29.4733 72.6552 29.4733C71.9214 29.4733 71.2568 29.1667 70.7749 28.6716C70.293 28.1794 69.994 27.4705 69.994 26.7195C69.994 25.9656 70.293 25.2849 70.7749 24.7899C71.254 24.2976 71.9186 23.991 72.6525 23.991ZM73.799 25.5437C73.4999 25.2624 73.1122 25.074 72.6525 25.074C72.2149 25.074 71.8051 25.2624 71.5281 25.5437C71.2291 25.8503 71.0463 26.2722 71.0463 26.7223C71.0463 27.192 71.2291 27.5915 71.5281 27.9009C71.8023 28.2047 72.2149 28.396 72.6525 28.396C73.09 28.396 73.4999 28.2047 73.7768 27.9234L73.799 27.9009C74.0981 27.5943 74.2808 27.1949 74.2808 26.7223C74.2808 26.2751 74.0953 25.8756 73.8211 25.569L73.799 25.5437Z" fill="#044269"/>
<path id="Vector_19" d="M63.4972 1.08295C63.1981 1.08295 62.971 0.84667 62.971 0.54288C62.971 0.236276 63.2009 0.00280762 63.4972 0.00280762H72.3091C72.6082 0.00280762 72.838 0.239089 72.838 0.54288C72.838 0.849483 72.6082 1.08295 72.3091 1.08295H63.4972Z" fill="#044269"/>
<path id="Vector_20" d="M69.8056 3.53296C69.5315 3.53296 69.2795 3.27418 69.2795 2.99289C69.2795 2.68629 69.5315 2.45282 69.8056 2.45282H74.2116C74.5107 2.45282 74.7599 2.6891 74.7599 2.99289C74.7599 3.27418 74.5079 3.53296 74.2116 3.53296H69.8056Z" fill="#044269"/>
<path id="Vector_21" d="M35.2476 4.23618C35.5467 4.23618 35.7765 4.47246 35.7765 4.77625C35.7765 5.08285 35.5467 5.31632 35.2476 5.31632H26.4357C26.1366 5.31632 25.9068 5.08004 25.9068 4.77625C25.9068 4.46964 26.1366 4.23618 26.4357 4.23618H35.2476Z" fill="#044269"/>
<path id="Vector_22" d="M28.9364 6.68619C29.2355 6.68619 29.4626 6.92247 29.4626 7.22626C29.4626 7.50755 29.2327 7.76633 28.9364 7.76633H24.5304C24.2314 7.76633 24.0043 7.50755 24.0043 7.22626C24.0043 6.91966 24.2341 6.68619 24.5304 6.68619H28.9364Z" fill="#044269"/>
<path id="Vector_23" d="M11.2683 42.6347C11.5424 42.6347 11.7944 42.871 11.7944 43.1748C11.7944 43.4561 11.5424 43.7149 11.2683 43.7149H2.43144C2.15728 43.7149 1.90527 43.4561 1.90527 43.1748C1.90527 42.8682 2.15728 42.6347 2.43144 42.6347H11.2683Z" fill="#044269"/>
<path id="Vector_24" d="M4.93212 45.0594C5.2312 45.0594 5.46105 45.3182 5.46105 45.6248C5.46105 45.9061 5.2312 46.1677 4.93212 46.1677H0.528936C0.229852 46.1677 0 45.9089 0 45.6248C0 45.3182 0.229852 45.0594 0.528936 45.0594H4.93212Z" fill="#044269"/>
<path id="Vector_25" d="M72.7909 53.5121C73.09 53.5121 73.3199 53.7456 73.3199 54.0522C73.3199 54.356 73.09 54.5923 72.7909 54.5923H63.979C63.68 54.5923 63.4279 54.356 63.4279 54.0522C63.4279 53.7456 63.68 53.5121 63.979 53.5121H72.7909Z" fill="#044269"/>
<path id="Vector_26" d="M66.4797 55.9593C66.7539 55.9593 67.0086 56.1956 67.0086 56.4994C67.0086 56.806 66.7539 57.0395 66.4797 57.0395H62.0488C61.7747 57.0395 61.5227 56.8032 61.5227 56.4994C61.5227 56.1928 61.7747 55.9593 62.0488 55.9593H66.4797Z" fill="#044269"/>
<path id="Vector_27" d="M61.6362 25.0739L67.2358 31.6645C67.6927 32.2046 67.9253 32.8881 67.9032 33.5491C67.8782 34.2327 67.6262 34.8909 67.1222 35.3831C66.9145 35.5969 66.5711 35.5969 66.3662 35.3831L61.4562 29.7096C61.4092 29.6392 61.3648 29.5464 61.3399 29.4508L61.2264 28.8151C60.9965 27.7096 60.7445 26.4382 60.6753 25.4284C60.6504 25.1443 60.883 24.8855 61.1793 24.863C61.3621 24.8377 61.5227 24.9305 61.6362 25.0739ZM66.4576 32.393L61.9824 27.1189C62.0489 27.614 62.1652 28.1315 62.2566 28.6041L62.3479 29.0992L66.7068 34.137C66.7982 33.9486 66.8453 33.7376 66.8453 33.5238C66.8702 33.1244 66.7317 32.6997 66.4576 32.393Z" fill="#044269"/>
<path id="Vector_28" d="M68.889 37.7375C69.4622 38.0891 70.0133 38.4886 70.5866 38.8655C71.1377 39.2677 71.6888 39.6897 72.1928 40.0891C73.4777 41.1017 74.1424 42.4181 74.303 43.7852C74.4193 44.5869 74.3251 45.3857 74.0953 46.1874C73.8904 46.9384 73.4999 47.6951 73.018 48.3505C71.9851 49.6922 70.426 50.7049 68.5428 50.9637H46.0755C45.8928 50.9637 45.7321 50.8933 45.6158 50.7752C45.4774 50.6571 45.4081 50.4714 45.4081 50.3054C45.4081 48.5165 46.0977 46.8906 47.2193 45.667C47.8396 45.0088 48.5984 44.4659 49.4458 44.1143C46.2555 42.4885 46.4162 37.8979 46.5546 34.2017C46.5768 33.5435 46.5989 32.905 46.5989 32.2946L46.6211 31.8474L46.6654 31.4704L46.7346 30.3622C47.078 25.2315 47.4214 20.098 52.7939 16.9448C53.0459 16.7816 53.2979 16.6635 53.5277 16.5678C53.7797 16.4497 54.0317 16.3794 54.2837 16.309C54.4665 16.2612 54.6521 16.3315 54.7877 16.4497C55.3167 16.9223 55.9121 17.3217 56.5767 17.5805C57.2192 17.8618 57.9087 18.0277 58.6398 18.0502C58.8005 18.0755 58.9611 18.1459 59.0552 18.2865C61.0297 20.7112 61.5116 23.8897 61.9907 26.9501C62.107 27.704 62.2205 28.4578 62.359 29.2342C62.4282 29.5408 62.2205 29.8249 61.9464 29.8699C61.7636 29.9177 61.5587 29.8474 61.4424 29.7068L58.4958 26.2722C58.2189 25.9656 57.8284 25.7772 57.438 25.7547C57.0475 25.7294 56.6349 25.8728 56.3136 26.1316L56.2666 26.2019C55.9675 26.4832 55.7847 26.8629 55.7625 27.2624C55.7404 27.6871 55.8789 28.1091 56.153 28.4382L65.3554 39.0568C65.6545 39.3859 66.0449 39.5518 66.4354 39.5743C66.8259 39.5968 67.2136 39.4787 67.5376 39.1974L67.5847 39.1721C67.7231 39.0314 67.8367 38.8655 67.9281 38.7023C68.0194 38.5392 68.0665 38.3254 68.0887 38.137C68.1108 37.8303 68.3628 37.6194 68.6619 37.6447C68.7505 37.6447 68.8198 37.6925 68.889 37.7375ZM69.9663 39.7628L68.9333 39.0568L68.8641 39.1974C68.7256 39.4787 68.5207 39.7375 68.2908 39.9738L68.2687 39.9963C67.7176 40.4913 67.028 40.7023 66.3634 40.6573C65.6988 40.632 65.0563 40.3282 64.5744 39.7881L55.3721 29.147C54.8902 28.6069 54.6825 27.9009 54.7074 27.2174C54.7545 26.5338 55.0287 25.8756 55.5548 25.4059L55.6019 25.3581C56.1309 24.863 56.8176 24.6267 57.485 24.6745C58.1497 24.7224 58.7921 25.0036 59.274 25.5437C59.8722 26.2019 60.3762 26.8629 60.9494 27.5437C60.7417 25.4481 59.6645 20.9053 58.3795 19.1388C57.5986 19.0685 56.8647 18.88 56.1779 18.5987C55.4884 18.3174 54.8459 17.9152 54.2948 17.4454L53.9514 17.5636C53.7216 17.6564 53.5388 17.752 53.3311 17.8702C48.4433 20.7646 48.1248 25.6168 47.8008 30.4662C47.7537 30.9613 47.7316 31.4536 47.6873 31.9486L47.6623 32.303C47.6623 32.8684 47.6402 33.5266 47.6153 34.2327C47.4768 38.1651 47.294 43.2479 51.7 43.6024C51.9741 43.6277 52.1818 43.8386 52.204 44.1199C52.204 44.4012 51.9741 44.66 51.7 44.6853C50.2544 44.7556 48.9445 45.4139 47.9836 46.4265C47.1583 47.3463 46.5823 48.5474 46.4909 49.8863H68.4764C70.0133 49.6726 71.3232 48.8259 72.1706 47.6979C72.5832 47.1325 72.9045 46.5193 73.09 45.8583C73.2728 45.2226 73.342 44.5644 73.2728 43.9062C73.1343 42.8232 72.5832 41.7881 71.5503 40.9611C71.0241 40.542 70.5173 40.1397 69.9663 39.7628Z" fill="#044269"/>
<path id="Vector_29" d="M64.3446 6.40491C64.9871 7.08562 65.4939 7.90979 65.8373 8.78179C66.1585 9.65378 66.344 10.5933 66.344 11.5834C66.344 13.679 65.5188 15.5608 64.1868 16.9279C62.8547 18.3174 60.9965 19.1641 58.9556 19.1641C56.9118 19.1641 55.0785 18.3174 53.7465 16.9279H53.7244C52.3923 15.5608 51.5671 13.6565 51.5671 11.5834C51.5671 10.8549 51.6806 10.1488 51.8634 9.48782C52.0489 8.8071 52.3231 8.16858 52.6914 7.58069C52.8271 7.36972 53.0791 7.27409 53.3117 7.34441L63.6606 6.30927C63.7298 6.26145 63.8212 6.23895 63.9126 6.23895C64.0704 6.21644 64.2311 6.28677 64.3446 6.40491ZM64.8514 9.18121C64.5994 8.52019 64.2311 7.9323 63.7963 7.39223L53.4225 8.42736C53.1927 8.85211 53.0099 9.32186 52.8714 9.79161C52.7108 10.357 52.6443 10.9702 52.6443 11.5806C52.6443 13.3696 53.3311 14.9954 54.4804 16.1712C55.6269 17.3498 57.2109 18.0783 58.9556 18.0783C60.7002 18.0783 62.2815 17.3498 63.4307 16.1712C64.58 14.9954 65.2917 13.3696 65.2917 11.5806C65.2862 10.7367 65.1255 9.93506 64.8514 9.18121Z" fill="#044269"/>
<path id="Vector_30" d="M51.6778 44.6853C51.3815 44.6853 51.1517 44.449 51.1517 44.1424C51.1517 43.8358 51.3815 43.6024 51.6778 43.6024H63.0846C63.3837 43.6024 63.6107 43.8386 63.6107 44.1424C63.6107 44.449 63.3837 44.6853 63.0846 44.6853H51.6778Z" fill="#044269"/>
<path id="Vector_31" d="M53.3754 3.24885L62.1652 2.28404C63.7714 2.09557 64.1618 2.96475 64.3003 4.30931C64.3474 4.61591 64.3474 4.94502 64.3695 5.29944C64.3944 5.74669 64.4166 6.26426 64.4858 6.75651C64.5329 7.06311 64.3252 7.3219 64.0483 7.36971L53.1926 8.45267C52.8963 8.47517 52.6443 8.26421 52.6194 7.98011C52.5723 7.6285 52.4809 7.22626 52.4145 6.82683C52.2982 6.35708 52.2068 5.86201 52.1625 5.41477C52.0212 4.26149 52.2289 3.3895 53.3754 3.24885ZM62.2787 3.34449L53.489 4.33462C53.1899 4.35713 53.1456 4.78187 53.1899 5.29944C53.2342 5.69887 53.3283 6.14611 53.4419 6.61586L53.5803 7.3219L63.3809 6.35708C63.3587 6.00547 63.3366 5.67355 63.3117 5.34444C63.2895 5.01534 63.2895 4.70874 63.2424 4.42745C63.176 3.74392 62.9904 3.27136 62.2787 3.34449Z" fill="#044269"/>
<path id="Vector_32" d="M52.8022 5.74389C52.5252 5.7692 52.2732 5.55542 52.2289 5.25163C52.204 4.94503 52.4339 4.68625 52.7108 4.66093L60.8359 3.88458C61.1101 3.86207 61.387 4.07304 61.4092 4.37964C61.4313 4.68625 61.2264 4.94503 60.9273 4.96753L52.8022 5.74389Z" fill="#044269"/>
<path id="Vector_33" d="M52.9877 6.99281C52.6886 7.01532 52.4366 6.80435 52.4145 6.49775C52.3895 6.19114 52.5972 5.93236 52.8963 5.90704L58.0832 5.41479C58.3823 5.39229 58.6343 5.60325 58.6565 5.90704C58.6814 6.19114 58.4737 6.47243 58.1774 6.49775L52.9877 6.99281Z" fill="#044269"/>
<path id="Vector_34" d="M55.5327 25.4031L55.6019 25.3327C56.153 24.8855 56.8177 24.6745 57.4601 24.7195C58.1248 24.742 58.7672 25.0486 59.2519 25.5887C62.2122 29.0992 65.4025 32.8403 68.4764 36.2298C68.9582 36.7924 69.1659 37.4759 69.1189 38.1595C69.0746 38.8402 68.7976 39.5012 68.2687 39.9934L68.1995 40.0638C67.6733 40.511 66.9837 40.7248 66.3413 40.6995C65.6766 40.6517 65.0342 40.3451 64.5495 39.8275L55.3472 29.1864C54.8653 28.621 54.6604 27.915 54.6825 27.2314C54.7296 26.5563 55.0287 25.8981 55.5327 25.4031ZM56.2915 26.1794L56.2693 26.2019C55.9481 26.4832 55.7653 26.8855 55.7404 27.3102C55.7182 27.7096 55.8567 28.1344 56.1309 28.4635C59.2048 31.9964 62.2344 35.5491 65.3332 39.0821C65.6074 39.4112 65.9979 39.5996 66.4105 39.6222C66.801 39.6475 67.1914 39.504 67.5127 39.2452L67.5348 39.2227C67.8561 38.9161 68.0388 38.5167 68.061 38.0919C68.0859 37.6925 67.9475 37.2678 67.6705 36.9387C64.6188 33.4057 61.567 29.853 58.4931 26.3229C58.194 25.9938 57.8035 25.8278 57.413 25.8053C57.0253 25.78 56.61 25.9009 56.2887 26.1569V26.1794H56.2915Z" fill="#044269"/>
<path id="Vector_35" d="M50.8526 32.3002C50.8526 32.6068 50.6227 32.8403 50.3236 32.8403C50.0246 32.8403 49.7947 32.604 49.7947 32.3002L49.8196 31.8755L49.8667 31.476L49.9332 30.3678C50.163 27.0261 50.3929 23.6591 52.0461 20.8096C52.2068 20.5733 52.528 20.4805 52.78 20.6465C53.032 20.7871 53.1012 21.119 52.9628 21.3778C51.4258 23.991 51.196 27.2174 50.9883 30.4409C50.944 30.9585 50.919 31.4535 50.872 31.9486L50.8526 32.3002Z" fill="#044269"/>
<path id="Vector_36" d="M53.6053 24.2498C53.536 24.5311 53.2619 24.7195 52.9628 24.6492C52.6886 24.5536 52.5253 24.2723 52.5973 23.9657C52.6637 23.7069 52.7579 23.4481 52.8493 23.1893C53.3062 21.7773 53.7659 20.3652 54.7988 19.3273C55.0065 19.1163 55.3499 19.1163 55.5549 19.3273C55.7626 19.5382 55.7376 19.8926 55.5327 20.1036C54.6825 20.9503 54.2699 22.247 53.8573 23.5156C53.7659 23.7547 53.6967 24.0135 53.6053 24.2498Z" fill="#044269"/>
<path id="Vector_37" d="M68.8668 42.0468C68.637 41.8584 68.5927 41.5293 68.7755 41.293C68.9361 41.0567 69.2822 41.0117 69.5093 41.2002C70.5894 42.0693 71.1377 43.1776 71.254 44.3534C71.3924 45.6248 70.9771 46.9216 70.1961 47.9792C70.0355 48.2155 69.6921 48.2605 69.4622 48.072C69.2324 47.9089 69.1881 47.5545 69.3709 47.3182C69.9912 46.4715 70.3124 45.4364 70.221 44.4462C70.1297 43.577 69.6921 42.7276 68.8668 42.0468Z" fill="#044269"/>
<path id="Vector_38" d="M55.5549 26.1091C55.3472 25.8981 55.3721 25.5437 55.6019 25.3581C55.8096 25.1443 56.153 25.1696 56.3358 25.4059L62.3258 32.3284C62.5113 32.5393 62.4864 32.8938 62.2787 33.0822C62.0489 33.2707 61.7276 33.2707 61.5448 33.0344L55.5549 26.1091Z" fill="#044269"/>
<path id="Vector_39" d="M47.571 46.6375C47.2968 46.6375 47.0448 46.4012 47.0448 46.0974C47.0448 45.7908 47.2968 45.5573 47.571 45.5573H54.6853C54.9622 45.5573 55.2115 45.7936 55.2115 46.0974C55.2115 46.404 54.9594 46.6375 54.6853 46.6375H47.571Z" fill="#044269"/>
<path id="Vector_40" d="M46.3774 48.5446C46.0783 48.5446 45.8513 48.3083 45.8513 48.0017C45.8513 47.7204 46.0811 47.4616 46.3774 47.4616H59.8944C60.1934 47.4616 60.4233 47.7204 60.4233 48.0017C60.4233 48.3083 60.1934 48.5446 59.8944 48.5446H46.3774Z" fill="#044269"/>
<path id="Vector_41" d="M18.5405 37.504C18.5405 37.7881 18.3106 38.0441 18.0143 38.0441C17.7152 38.0441 17.4854 37.7853 17.4854 37.504C17.4854 37.2453 17.5075 37.1018 17.5324 36.8683L17.5795 36.1173C17.7401 33.6926 17.9007 31.2904 19.1165 29.2201C19.2549 28.9839 19.5762 28.891 19.8282 29.0317C20.0802 29.1948 20.1716 29.5239 20.011 29.7827C18.9337 31.6195 18.7952 33.9036 18.6346 36.1876C18.6097 36.6096 18.5654 37.0568 18.5405 37.504Z" fill="#044269"/>
<path id="Vector_42" d="M7.02293 50.9693C6.72385 50.9693 6.49677 50.733 6.49677 50.4264C6.49677 50.1198 6.72662 49.8863 7.02293 49.8863H77.4738C77.7729 49.8863 78.0028 50.1226 78.0028 50.4264C78.0028 50.733 77.7729 50.9693 77.4738 50.9693H7.02293Z" fill="#044269"/>
<path id="Vector_43" fill-rule="evenodd" clip-rule="evenodd" d="M53.5831 7.32192L63.3836 6.3571L63.3144 5.34447L63.2452 4.42747C63.1759 3.74394 62.9932 3.27419 62.2815 3.34452L53.4917 4.33465C53.3311 4.35715 53.2619 4.45279 53.2148 4.61593L60.8331 3.88459C61.1073 3.86208 61.3842 4.07305 61.4064 4.37965C61.4285 4.68626 61.2236 4.94504 60.9245 4.96754L53.2591 5.69608C53.2591 5.7664 53.2812 5.81422 53.2812 5.85922L58.0777 5.41198C58.3768 5.38947 58.6288 5.60044 58.6509 5.90423C58.6758 6.18833 58.4681 6.46962 58.1718 6.49493L53.5111 6.94218L53.5831 7.32192Z" fill="#FFD443"/>
<path id="Vector_44" fill-rule="evenodd" clip-rule="evenodd" d="M57.413 25.8025C57.0253 25.7772 56.6099 25.8981 56.2887 26.1541V26.1794L56.2666 26.2019C55.9453 26.4832 55.7625 26.8854 55.7376 27.3102C55.7155 27.7096 55.8539 28.1344 56.1281 28.4635C59.202 31.9964 62.2316 35.5491 65.3305 39.0821C65.6046 39.4112 65.9951 39.5996 66.4077 39.6221C66.7982 39.6475 67.1887 39.504 67.5099 39.2452L67.5321 39.2227C67.8533 38.9161 68.0361 38.5167 68.0582 38.0919C68.0831 37.6925 67.9447 37.2678 67.6677 36.9387C64.616 33.4057 61.5642 29.853 58.4903 26.3229C58.194 25.991 57.8035 25.8278 57.413 25.8025Z" fill="#FECCAB"/>
<path id="Vector_45" fill-rule="evenodd" clip-rule="evenodd" d="M62.3507 29.0992L66.7096 34.137C66.801 33.9486 66.8481 33.7376 66.8481 33.5238C66.8702 33.1244 66.7345 32.6997 66.4576 32.3931L62.0295 27.1892C62.0987 27.659 62.1901 28.109 62.2593 28.6013C62.2787 28.7701 62.3258 28.9332 62.3507 29.0992Z" fill="#FECCAB"/>
<path id="Vector_46" fill-rule="evenodd" clip-rule="evenodd" d="M28.0419 42.916L21.5036 35.3578C21.1353 34.9106 20.9525 34.3705 20.9996 33.8529C21.0217 33.3354 21.2516 32.8178 21.642 32.4409L21.6642 32.4156C21.6864 32.4156 21.6864 32.3931 21.7113 32.3677C22.1239 32.0386 22.6279 31.8727 23.1098 31.898C23.1347 31.898 23.1347 31.898 23.1347 31.898C23.6636 31.9233 24.1676 32.1568 24.5332 32.5815L25.3584 33.5463C25.3114 33.2397 25.2671 32.9331 25.2449 32.6744C25.2449 32.6519 25.2449 32.6265 25.2449 32.604C25.1064 31.7799 24.9237 30.9557 24.6717 30.1793C24.4196 29.4733 24.0984 28.8123 23.6858 28.2497C22.6058 28.1541 21.5977 27.7321 20.8168 27.0711L20.6562 27.1189L20.2159 27.3327C16.8207 29.358 16.5908 32.77 16.361 36.1848C16.3139 36.6096 16.2696 37.054 16.2696 37.5041L16.2253 38.8936C16.1339 41.6249 15.9954 45.1326 18.978 45.3914H19.0001H27.1003C27.3994 45.3914 27.6514 45.653 27.6514 45.9314C27.6514 46.238 27.3994 46.4743 27.1003 46.4743H19.0001C18.978 46.4743 18.978 46.4743 18.9531 46.4743C17.9672 46.5446 17.0949 46.9919 16.4524 47.6754C16.3139 47.8386 16.2004 47.982 16.0868 48.1705H24.8295C25.1286 48.1705 25.3584 48.4068 25.3584 48.7106C25.3584 48.9946 25.1286 49.2506 24.8295 49.2506H15.5579C15.5108 49.4391 15.4665 49.6529 15.4416 49.8863H30.9552C32.0103 49.7232 32.8826 49.155 33.478 48.3786C33.7549 48.0017 33.982 47.5798 34.0983 47.1325C34.1676 46.9187 34.2119 46.7078 34.2368 46.4968V46.449C34.259 46.2352 34.259 46.0243 34.2147 45.7908C34.1925 45.532 34.1233 45.2479 34.0097 44.9891L33.9876 44.9638C33.8048 44.5419 33.4836 44.1396 33.0682 43.788L31.9438 42.9413L31.3457 42.5419C31.2543 42.7276 31.1158 42.8935 30.9552 43.0342C30.9552 43.0595 30.9303 43.0595 30.9303 43.082C30.9303 43.082 30.9081 43.082 30.9081 43.1045C30.8832 43.1045 30.8832 43.1298 30.861 43.1298C30.4484 43.4814 29.9416 43.6474 29.4376 43.6249C28.9364 43.5771 28.4102 43.3408 28.0419 42.916ZM18.5404 37.5041C18.5404 37.7882 18.3106 38.0441 18.0143 38.0441C17.7152 38.0441 17.4853 37.7853 17.4853 37.5041L17.5324 36.8684L17.5795 36.1173C17.7401 33.6926 17.9007 31.2904 19.1164 29.2201C19.2549 28.9839 19.5761 28.891 19.8282 29.0317C20.0802 29.1948 20.1715 29.5239 20.0109 29.7827C18.9337 31.6195 18.7952 33.9036 18.6346 36.1876C18.6097 36.6096 18.5654 37.0568 18.5404 37.5041ZM31.1407 44.5644C30.9109 44.4012 30.8666 44.0468 31.0493 43.8105C31.2321 43.5771 31.5534 43.5292 31.7832 43.7177C32.6085 44.3534 32.9989 45.2029 33.0903 46.0721C33.1817 47.0144 32.8854 47.9792 32.3121 48.7781C32.1294 49.0143 31.8081 49.0622 31.5783 48.8737C31.3484 48.6852 31.3041 48.3561 31.462 48.1199C31.8995 47.5545 32.1044 46.8484 32.0352 46.1902C31.9881 45.6023 31.714 45.0144 31.1407 44.5644Z" fill="#80DEEA"/>
<path id="Vector_47" fill-rule="evenodd" clip-rule="evenodd" d="M23.9572 27.192H23.9793C23.9793 27.192 23.9793 27.192 23.9572 27.192ZM28.5237 22.7196C28.5237 22.1317 28.4323 21.5663 28.2247 21.0712C28.064 20.6465 27.8342 20.2471 27.56 19.8954L20.3072 20.6015C20.1688 20.8828 20.0552 21.1669 19.9638 21.4707C19.8725 21.8701 19.8032 22.2723 19.8032 22.7196C19.8032 23.9432 20.2851 25.0739 21.0882 25.8728C21.1325 25.9431 21.2045 25.9909 21.2488 26.036C21.2709 26.0613 21.2931 26.0613 21.2931 26.0838C22.0048 26.7195 22.9464 27.1189 23.9544 27.192C24.0236 27.192 24.0929 27.192 24.1621 27.192C25.0566 27.192 25.8818 26.9108 26.5935 26.441C26.8234 26.275 27.0532 26.0866 27.2609 25.8756C27.8342 25.2877 28.269 24.5086 28.4296 23.6394L28.4988 23.1921L28.5237 22.7196Z" fill="#FFCEB4"/>
<path id="Vector_48" fill-rule="evenodd" clip-rule="evenodd" d="M29.5096 42.5419C29.7395 42.5419 29.9915 42.4716 30.1742 42.3056H30.1964C29.9915 42.4716 29.7395 42.5419 29.5096 42.5419ZM23.1319 31.9008H23.107C23.1319 31.9008 23.1319 31.9008 23.1319 31.9008ZM31.3457 42.5419C31.2321 42.7276 31.1158 42.8935 30.9552 43.0342C31.0466 42.9638 31.1158 42.871 31.185 42.7754C31.2543 42.7051 31.3013 42.6122 31.3457 42.5419ZM25.3557 33.5492L24.5304 32.5843C23.9572 31.9261 23.2455 31.7827 22.603 31.9486C21.9827 32.0893 21.4316 32.5618 21.1574 33.1272C21.066 33.3635 20.9968 33.597 20.9968 33.8586C20.9497 34.3761 21.1353 34.9162 21.5008 35.3635L28.0391 42.9216C28.1305 43.0173 28.2219 43.1101 28.3133 43.1804C28.6345 43.4392 29.025 43.6052 29.4155 43.6277C29.4376 43.6277 29.4376 43.6277 29.4376 43.6277C29.9416 43.653 30.4484 43.487 30.8389 43.1579C30.861 43.1579 30.861 43.1326 30.861 43.1326C30.8832 43.1326 30.8832 43.1073 30.9081 43.1073C31.0909 42.9442 31.2293 42.7557 31.3429 42.5447C31.4814 42.2606 31.5506 41.9793 31.5727 41.6981V41.6727C31.5949 41.5799 31.5949 41.4843 31.5727 41.3886C31.5506 40.9639 31.39 40.5195 31.0687 40.165L30.4041 39.3859L29.6232 38.4914L26.732 35.1497L25.4 33.6195L25.3557 33.5492ZM30.5204 41.6474C30.5204 41.6221 30.5204 41.6221 30.5204 41.6221V41.6474ZM29.3268 39.7628L25.8375 35.7376C25.8375 35.7601 25.8597 35.7601 25.8597 35.7601L29.3268 39.7628ZM30.9109 43.1073C30.933 43.0848 30.958 43.0595 30.958 43.037L30.933 43.0848C30.933 43.082 30.9109 43.082 30.9109 43.1073Z" fill="#FFCEB4"/>
<path id="Vector_49" fill-rule="evenodd" clip-rule="evenodd" d="M20.4457 19.4932L27.1474 18.835C27.1474 18.6465 27.1252 18.4581 27.1252 18.2696L27.0782 17.6339C27.0311 17.2092 26.9397 16.9504 26.5492 16.9982L23.9322 17.2823C23.9101 17.2823 23.9101 17.2823 23.9101 17.2823L20.2851 17.707C20.1937 17.707 20.1688 17.918 20.2158 18.2021C20.238 18.4834 20.3072 18.79 20.3765 19.1191L20.4457 19.4932Z" fill="#DCE775"/>
<path id="Vector_50" d="M26.1837 32.2299L30.1992 36.9387C30.5426 37.3634 30.7254 37.881 30.706 38.3985C30.681 38.9161 30.4761 39.4112 30.1106 39.8106C29.8807 40.0244 29.5595 40.0244 29.3518 39.7909L25.8403 35.7404C25.7711 35.6701 25.7489 35.5772 25.724 35.4816L25.6326 35.0118C25.472 34.2102 25.2865 33.3157 25.2421 32.6125C25.2172 32.3059 25.4471 32.0471 25.7462 32.0218C25.9317 32.0161 26.0923 32.0893 26.1837 32.2299ZM29.3961 37.6672L26.5742 34.3255L26.7348 35.1497L29.6259 38.4914L29.6481 38.3507C29.6481 38.1144 29.5789 37.8557 29.3961 37.6672Z" fill="#044269"/>
<path id="Vector_51" d="M31.3457 41.2452C31.7361 41.504 32.1487 41.7852 32.5392 42.0693C32.9297 42.3281 33.3202 42.6347 33.7106 42.9413C34.6522 43.6924 35.1562 44.66 35.2697 45.6726C35.339 46.2605 35.2919 46.8737 35.1091 47.4391C34.9485 48.0017 34.6716 48.5474 34.306 49.0397C33.5472 50.0298 32.4008 50.7808 31.0244 50.9693H14.9625C14.8019 50.9693 14.6413 50.899 14.5277 50.7808L14.4585 50.688C14.3892 50.5952 14.3671 50.477 14.3671 50.3364C14.3671 49.0172 14.8711 47.8161 15.6991 46.9469C16.0896 46.5221 16.5244 46.1705 17.0533 45.9117C14.9653 44.6178 15.0788 41.4393 15.173 38.8486C15.1951 38.3789 15.1951 37.9541 15.1951 37.5069C15.2173 37.2481 15.2173 37.1046 15.2422 36.8712L15.3114 36.1201C15.5634 32.4212 15.7933 28.7026 19.6952 26.3988C19.9029 26.3032 20.0857 26.2076 20.2463 26.14L20.2934 26.1147C20.4789 26.0444 20.6368 25.9966 20.8223 25.9488C21.0051 25.9038 21.1879 25.9713 21.3042 26.0894C21.6725 26.4185 22.0851 26.6801 22.5448 26.8686C22.9796 27.057 23.4615 27.1724 23.9682 27.1977C24.1289 27.1977 24.2895 27.268 24.3809 27.4115C25.8043 29.1751 26.1477 31.4592 26.4911 33.6729C26.5825 34.213 26.6517 34.7334 26.7652 35.2988C26.8123 35.58 26.6268 35.8613 26.3526 35.9345C26.1477 35.957 25.9621 35.8867 25.8486 35.746L23.7384 33.3213C23.5778 33.1075 23.3258 33.0147 23.0738 32.9922C22.8218 32.9697 22.5698 33.0625 22.3842 33.2285C22.1793 33.4169 22.063 33.6757 22.063 33.9345C22.0408 34.1708 22.1322 34.4268 22.2928 34.6405L28.8561 42.2212C29.0167 42.4097 29.2687 42.5278 29.5207 42.5504C29.7727 42.5504 30.0275 42.48 30.2102 42.2888C30.3016 42.2184 30.393 42.1031 30.4401 42.0075C30.4872 41.8893 30.5315 41.7712 30.5315 41.6559C30.5536 41.3493 30.8306 41.1355 31.1047 41.1608C31.185 41.1524 31.2764 41.2002 31.3457 41.2452ZM31.9438 42.9413L31.3457 42.5419C31.2321 42.7529 31.0936 42.9413 30.9109 43.1045C30.4955 43.4814 29.9693 43.6474 29.4431 43.6221C28.9391 43.5742 28.4102 43.338 28.0419 42.9132L21.5036 35.355C21.1353 34.9303 20.9525 34.3677 20.9996 33.8501C21.0217 33.3072 21.2516 32.7925 21.6642 32.4128C22.0768 32.0386 22.6058 31.8727 23.1098 31.8952H23.1347C23.6387 31.9205 24.1676 32.154 24.5332 32.5787L25.4055 33.6138C25.1064 31.6842 24.763 29.7293 23.6609 28.2469C23.1319 28.1991 22.603 28.0584 22.1211 27.87C21.6393 27.6562 21.2045 27.4002 20.814 27.0683L20.6534 27.1161C20.4928 27.1921 20.3543 27.2624 20.2158 27.3327C16.8207 29.358 16.5908 32.77 16.361 36.1848C16.3139 36.6096 16.2696 37.054 16.2696 37.5041C16.2696 37.881 16.2474 38.3732 16.2253 38.8936C16.1339 41.6249 15.9954 45.1579 19.0029 45.3914C19.2771 45.4139 19.4848 45.653 19.5069 45.9089C19.5069 46.2127 19.2771 46.4743 19.0029 46.4743C17.9921 46.5221 17.0976 46.9919 16.4551 47.6754C15.9041 48.2633 15.5385 49.0397 15.4444 49.8891H30.958C32.0131 49.726 32.8854 49.1578 33.4808 48.3814C33.7577 48.0045 33.9848 47.5826 34.1011 47.1353C34.2396 46.6881 34.2839 46.2408 34.2146 45.7936C34.1454 45.0651 33.7771 44.3562 33.0682 43.7936C32.6998 43.5067 32.3343 43.2226 31.9438 42.9413Z" fill="#044269"/>
<path id="Vector_52" d="M28.1333 18.9278C28.593 19.4201 28.9585 20.0108 29.2105 20.669C29.4625 21.3047 29.5788 21.9882 29.5788 22.7168C29.5788 24.247 28.9834 25.6365 27.9948 26.6492C27.0062 27.6618 25.6548 28.2722 24.1621 28.2722C22.6695 28.2722 21.3153 27.6365 20.3294 26.6492V26.6239C19.3435 25.6365 18.7454 24.247 18.7454 22.7168C18.7454 22.1767 18.8146 21.6563 18.9503 21.1866C19.0888 20.669 19.2937 20.1993 19.5706 19.7745C19.6842 19.5635 19.9389 19.4707 20.1439 19.5382L27.4659 18.8097C27.5351 18.7619 27.6043 18.7394 27.6957 18.7394C27.8813 18.7169 28.0419 18.8097 28.1333 18.9278ZM28.2247 21.0712C28.064 20.624 27.8342 20.2471 27.56 19.8955L20.3072 20.6015C20.1688 20.8828 20.0552 21.1669 19.9638 21.4707C19.8725 21.8701 19.8032 22.2723 19.8032 22.7196C19.8032 23.9432 20.2851 25.074 21.0882 25.8728C21.8691 26.6745 22.9685 27.1921 24.1621 27.1921C25.3778 27.1921 26.4551 26.6745 27.2609 25.8728C28.0419 25.0712 28.5237 23.9432 28.5237 22.7196C28.5237 22.1317 28.4324 21.5663 28.2247 21.0712Z" fill="#044269"/>
<path id="Vector_53" d="M18.978 46.4743C18.6789 46.4743 18.4269 46.238 18.4269 45.9314C18.4269 45.6501 18.6789 45.3914 18.978 45.3914H27.1003C27.3994 45.3914 27.6514 45.653 27.6514 45.9314C27.6514 46.238 27.3994 46.4743 27.1003 46.4743H18.978Z" fill="#044269"/>
<path id="Vector_54" d="M20.1716 16.6213L26.4357 15.9124C27.7207 15.7718 28.0197 16.4553 28.1333 17.5158C28.1554 17.7267 28.1804 17.963 28.1804 18.2218C28.2025 18.5509 28.2247 18.9053 28.2717 19.2569C28.2967 19.5382 28.1111 19.8223 27.812 19.8701L20.0552 20.6212C19.7811 20.6465 19.5291 20.458 19.482 20.1514C19.4571 19.9151 19.3906 19.6339 19.3435 19.3526C19.2743 18.9981 19.1829 18.6437 19.1608 18.3174C19.0694 17.4201 19.23 16.7141 20.1716 16.6213ZM26.5492 16.9982L20.2851 17.707C20.1937 17.707 20.1688 17.918 20.2159 18.2021C20.238 18.4834 20.3072 18.79 20.3765 19.1191L20.4457 19.4932L27.1474 18.835L27.1253 18.2696C27.1253 18.0333 27.1031 17.8224 27.0782 17.6339C27.0311 17.2092 26.9397 16.9504 26.5492 16.9982Z" fill="#044269"/>
<path id="Vector_55" d="M21.6393 32.4409L21.7085 32.3706C22.1211 32.019 22.6251 31.8755 23.1319 31.9008C23.6609 31.9261 24.1649 32.1596 24.5304 32.5843L31.0715 40.165C31.4398 40.5898 31.6226 41.1299 31.5755 41.6727V41.6981C31.5534 42.2156 31.3235 42.7332 30.9109 43.1101C30.4955 43.487 29.9693 43.653 29.4432 43.6277H29.421C28.917 43.5799 28.4102 43.3436 28.0447 42.9188L21.5064 35.3606C21.138 34.9134 20.9553 34.3733 21.0023 33.8558C21.019 33.3382 21.2488 32.8178 21.6393 32.4409ZM23.0627 32.981C22.8328 32.9585 22.5808 33.0513 22.3981 33.1947L22.3731 33.2426C22.1682 33.4057 22.0519 33.6673 22.0519 33.9261C22.0297 34.1624 22.099 34.4436 22.2818 34.6321L28.845 42.2128C29.0056 42.4013 29.2576 42.5194 29.4875 42.5419H29.5096C29.7395 42.5419 29.9915 42.4716 30.1992 42.3056L30.2462 42.2578C30.4069 42.0919 30.5204 41.8584 30.5204 41.6221V41.5968C30.5426 41.338 30.4733 41.0792 30.2906 40.8908L23.7273 33.3101C23.5667 33.0991 23.3147 33.0063 23.0627 32.981Z" fill="#044269"/>
<path id="Vector_56" d="M31.1407 44.5644C30.9109 44.4012 30.8666 44.0468 31.0494 43.8105C31.2321 43.577 31.5534 43.5292 31.7832 43.7177C32.6085 44.3534 32.9989 45.2029 33.0903 46.0721C33.1817 47.0144 32.8854 47.9792 32.3122 48.778C32.1294 49.0143 31.8081 49.0621 31.5783 48.8737C31.3484 48.6852 31.3041 48.3561 31.462 48.1198C31.8995 47.5544 32.1045 46.8484 32.0352 46.1902C31.9882 45.6023 31.714 45.0144 31.1407 44.5644Z" fill="#044269"/>
<path id="Vector_57" d="M15.1924 49.2506C14.8933 49.2506 14.6634 48.9918 14.6634 48.7105C14.6634 48.4068 14.8933 48.1705 15.1924 48.1705H24.8295C25.1286 48.1705 25.3584 48.4068 25.3584 48.7105C25.3584 48.9946 25.1286 49.2506 24.8295 49.2506H15.1924Z" fill="#044269"/>
<path id="Vector_58" fill-rule="evenodd" clip-rule="evenodd" d="M26.7348 35.1497L29.6259 38.4914L29.6481 38.3507C29.6481 38.1173 29.5788 37.8585 29.3961 37.67L26.5963 34.3508L26.7348 35.1497Z" fill="#FFCEB4"/>
</g>
</g>
</g>
</g>
<defs>
<clipPath id="clip0_480_2840">
<rect width="78" height="61" fill="white"/>
</clipPath>
</defs>
</svg>
