<svg width="20" height="20" viewBox="0 0 20 20" fill="none" xmlns="http://www.w3.org/2000/svg">
<path id="Vector" d="M11.078 1.82508e-06C11.372 1.82508e-06 11.635 0.182995 11.734 0.456986L12.4399 2.41392C12.6929 2.47692 12.9099 2.53991 13.0939 2.60591C13.2949 2.67791 13.5539 2.78691 13.8739 2.9359L15.5178 2.06593C15.652 1.99484 15.8056 1.96918 15.9556 1.9928C16.1057 2.01642 16.244 2.08804 16.3498 2.19693L17.7958 3.69187C17.9877 3.89087 18.0417 4.18186 17.9338 4.43585L17.1628 6.24279C17.2908 6.47778 17.3928 6.67877 17.4708 6.84677C17.5548 7.02976 17.6588 7.28175 17.7828 7.60674L19.5797 8.37671C19.8497 8.49171 20.0167 8.7617 19.9987 9.05069L19.8667 11.1256C19.8577 11.2604 19.8093 11.3896 19.7275 11.4971C19.6457 11.6047 19.5342 11.6859 19.4067 11.7306L17.7048 12.3356C17.6558 12.5706 17.6048 12.7716 17.5508 12.9416C17.4637 13.2041 17.3642 13.4624 17.2528 13.7155L18.1077 15.6055C18.1681 15.7383 18.1843 15.8869 18.1541 16.0296C18.1239 16.1723 18.0488 16.3015 17.9397 16.3984L16.3138 17.8504C16.2067 17.9456 16.0731 18.0058 15.9308 18.023C15.7886 18.0401 15.6445 18.0134 15.5178 17.9464L13.8419 17.0584C13.5797 17.1972 13.3092 17.3198 13.0319 17.4254L12.2999 17.6994L11.65 19.4993C11.6018 19.6311 11.5149 19.7453 11.4007 19.8269C11.2865 19.9084 11.1503 19.9535 11.01 19.9563L9.11005 19.9993C8.96602 20.0031 8.82436 19.9621 8.70456 19.8821C8.58475 19.802 8.49271 19.6868 8.44108 19.5523L7.6751 17.5254C7.41376 17.4361 7.155 17.3394 6.89913 17.2354C6.68985 17.1448 6.48374 17.0471 6.28115 16.9424L4.38122 17.7544C4.25603 17.8078 4.11801 17.8237 3.98397 17.8C3.84993 17.7764 3.72564 17.7144 3.62624 17.6214L2.22029 16.3024C2.11562 16.2047 2.04433 16.0765 2.01651 15.936C1.9887 15.7954 2.00576 15.6497 2.0653 15.5195L2.88227 13.7395C2.77362 13.5287 2.67288 13.3139 2.58028 13.0955C2.47218 12.8283 2.37214 12.5578 2.28029 12.2846L0.490351 11.7396C0.344856 11.6956 0.217954 11.6048 0.129353 11.4813C0.0407512 11.3578 -0.00459114 11.2085 0.000367456 11.0566L0.070365 9.13569C0.0753475 9.01035 0.1145 8.88877 0.183589 8.78407C0.252678 8.67938 0.349074 8.59557 0.462352 8.54171L2.34029 7.63974C2.42728 7.32075 2.50328 7.07276 2.57028 6.89176C2.66462 6.65002 2.76938 6.41247 2.88427 6.17979L2.0703 4.45985C2.00852 4.32923 1.98977 4.1824 2.01672 4.04045C2.04367 3.8985 2.11494 3.76876 2.22029 3.66988L3.62424 2.34392C3.72266 2.2511 3.8458 2.18869 3.97886 2.16421C4.11191 2.13973 4.2492 2.15421 4.37422 2.20593L6.27215 2.9899C6.48214 2.8499 6.67214 2.73691 6.84413 2.64591C7.04912 2.53691 7.32312 2.42292 7.6681 2.29992L8.32808 0.458986C8.37687 0.324259 8.46606 0.207876 8.58346 0.125729C8.70087 0.0435812 8.84077 -0.000326239 8.98406 1.82508e-06H11.078ZM10.024 7.01876C8.35708 7.01876 7.00613 8.35371 7.00613 10.0017C7.00613 11.6496 8.35708 12.9856 10.024 12.9856C11.69 12.9856 13.0409 11.6496 13.0409 10.0017C13.0409 8.35371 11.691 7.01876 10.024 7.01876Z" fill="#12ACF8"/>
</svg>
