<svg width="18" height="17" viewBox="0 0 18 17" fill="none" xmlns="http://www.w3.org/2000/svg">
<path id="Vector" d="M5.2125 5.9925C4.95 5.9925 4.7655 5.93215 4.659 5.81145C4.5525 5.69075 4.4995 5.48193 4.5 5.185C4.5 4.61833 4.61875 4.09417 4.85625 3.6125C5.09375 3.13083 5.4125 2.73417 5.8125 2.4225L9 0L12.1875 2.4225C12.5875 2.73417 12.9062 3.13083 13.1437 3.6125C13.3812 4.09417 13.5 4.61833 13.5 5.185C13.5 5.4825 13.4468 5.6916 13.3403 5.8123C13.2338 5.933 13.0495 5.99307 12.7875 5.9925H5.2125ZM0.75 17V6.56625C0.525 6.41042 0.34375 6.2084 0.20625 5.9602C0.06875 5.712 0 5.42527 0 5.1C0 4.77417 0.15 4.3775 0.45 3.91C0.75 3.4425 1.1 2.98917 1.5 2.55C1.9 2.98917 2.25 3.4425 2.55 3.91C2.85 4.3775 3 4.77417 3 5.1C3 5.42583 2.93125 5.71257 2.79375 5.9602C2.65625 6.20783 2.475 6.40985 2.25 6.56625V10.2H3.75V8.5C3.75 8.14583 3.85 7.80583 4.05 7.48C4.25 7.15417 4.5375 6.94167 4.9125 6.8425H13.0875C13.4625 6.94167 13.75 7.15417 13.95 7.48C14.15 7.80583 14.25 8.14583 14.25 8.5V10.2H15.75V6.56625C15.525 6.41042 15.3438 6.2084 15.2062 5.9602C15.0687 5.712 15 5.42527 15 5.1C15 4.77417 15.15 4.3775 15.45 3.91C15.75 3.4425 16.1 2.98917 16.5 2.55C16.9 2.98917 17.25 3.4425 17.55 3.91C17.85 4.3775 18 4.77417 18 5.1C18 5.42583 17.9312 5.71257 17.7938 5.9602C17.6562 6.20783 17.475 6.40985 17.25 6.56625V17H10.5V13.6C10.5 13.1325 10.353 12.7322 10.059 12.399C9.765 12.0658 9.412 11.8994 9 11.9C8.5875 11.9 8.23425 12.0666 7.94025 12.3998C7.64625 12.733 7.4995 13.1331 7.5 13.6V17H0.75Z" fill="#12ACF8"/>
</svg>
