<svg width="14" height="17" viewBox="0 0 14 17" fill="none" xmlns="http://www.w3.org/2000/svg">
<path id="Vector" d="M1.90909 0C0.862273 0 0 0.885962 0 1.96154V15.0385C0 16.114 0.862273 17 1.90909 17H14V0H1.90909ZM1.90909 1.30769H12.7273V13.0769H1.90909C1.69164 13.0797 1.47632 13.1213 1.27273 13.1998V1.96154C1.27273 1.59146 1.54891 1.30769 1.90909 1.30769ZM1.90909 1.96154V12.4231H12.0909V1.96154H1.90909ZM3.18182 3.26923H10.8182V11.1154H3.18182V3.26923ZM7 3.92308C6.65 3.92308 6.36364 4.21731 6.36364 4.57692C6.36364 4.93654 6.65 5.23077 7 5.23077C7.35 5.23077 7.63636 4.93654 7.63636 4.57692C7.63636 4.21731 7.35 3.92308 7 3.92308ZM7 5.23077H5.09091V9.15385H8.90909V5.23077H7ZM8.90909 7.19231C8.90909 7.55192 9.19545 7.84615 9.54545 7.84615C9.89545 7.84615 10.1818 7.55192 10.1818 7.19231C10.1818 6.83269 9.89545 6.53846 9.54545 6.53846C9.19545 6.53846 8.90909 6.83269 8.90909 7.19231ZM7 9.15385C6.65 9.15385 6.36364 9.44808 6.36364 9.80769C6.36364 10.1673 6.65 10.4615 7 10.4615C7.35 10.4615 7.63636 10.1673 7.63636 9.80769C7.63636 9.44808 7.35 9.15385 7 9.15385ZM5.09091 7.19231C5.09091 6.83269 4.80455 6.53846 4.45455 6.53846C4.10455 6.53846 3.81818 6.83269 3.81818 7.19231C3.81818 7.55192 4.10455 7.84615 4.45455 7.84615C4.80455 7.84615 5.09091 7.55192 5.09091 7.19231ZM6.36364 6.53846H7.63636V7.84615H6.36364V6.53846ZM1.90909 14.3846H12.7273V15.6923H1.90909C1.54891 15.6923 1.27273 15.4085 1.27273 15.0385C1.27273 14.6684 1.54891 14.3846 1.90909 14.3846Z" fill="#12ACF8"/>
</svg>
