<svg width="14" height="14" viewBox="0 0 14 14" fill="none" xmlns="http://www.w3.org/2000/svg">
<g id="Group 80">
<path id="Vector" d="M8.40704 11.1118C8.61484 11.2157 9.16552 11.4547 9.88243 11.3716C10.5786 11.2885 11.0461 10.9456 11.2331 10.8001C11.3267 10.8936 11.6903 11.2989 11.7111 11.9223C11.7319 12.5561 11.3994 12.982 11.3163 13.0859C11.0669 13.1275 10.6305 13.1795 10.1214 13.034C9.47722 12.8574 9.0824 12.4833 8.92655 12.3275C8.77069 12.1716 8.54211 11.8495 8.09534 11.2053L8.40704 11.1118Z" fill="#855C52"/>
<path id="Vector_2" d="M7.72131 4.05694C8.07457 4.35826 8.63564 4.22319 9.11358 4.1089C10.2357 3.84914 10.3916 3.22574 11.1708 3.19457C11.815 3.1634 12.5111 3.55822 12.8228 4.15046C13.3424 5.14791 12.5631 6.42589 12.4696 6.57135C11.3994 8.27533 9.68504 7.50646 8.5733 9.24161C8.22003 9.79228 7.96028 10.5508 7.19141 10.8625C7.00439 10.9352 6.65113 11.0807 6.39137 10.9248C5.77836 10.53 6.63035 8.85717 6.06928 8.38962C5.46665 7.8805 4.09516 9.49097 2.73406 8.99224C2.10026 8.76366 1.77817 8.18182 1.54958 7.78699C0.604085 6.11419 0.863838 3.43354 2.44313 1.9997C2.64055 1.82307 3.46136 1.10615 4.6874 1.01264C4.90559 0.991863 6.64074 0.887962 7.26414 1.93736C7.76287 2.7374 7.19141 3.61017 7.72131 4.05694Z" stroke="#A13300" stroke-linecap="round" stroke-linejoin="round"/>
<path id="Vector_3" d="M7.67975 11.2365C7.97814 11.2365 8.22004 10.9946 8.22004 10.6962C8.22004 10.3978 7.97814 10.1559 7.67975 10.1559C7.38136 10.1559 7.13947 10.3978 7.13947 10.6962C7.13947 10.9946 7.38136 11.2365 7.67975 11.2365Z" fill="#FBC21A"/>
<path id="Vector_4" d="M8.09535 10.6962L8.44862 11.0495C8.54213 11.143 8.54213 11.2989 8.44862 11.3924C8.3655 11.4755 8.24081 11.4859 8.1473 11.4235L7.67975 11.1118L8.09535 10.6962Z" fill="#FBC21A"/>
<path id="Vector_5" d="M8.95772 11.5482C8.95772 11.5898 8.9785 11.6313 9.02006 11.6417C9.16552 11.7041 9.57073 11.8495 10.2669 11.8184C10.8695 11.7976 11.2228 11.6106 11.3682 11.517C11.4098 11.4859 11.4306 11.4235 11.3994 11.382L11.2747 11.1742C11.2435 11.1222 11.1812 11.1118 11.1292 11.1326C10.9111 11.2573 10.3292 11.569 9.89283 11.569C9.34215 11.569 8.94733 11.4755 8.94733 11.4755V11.5482H8.95772Z" fill="#B89178"/>
</g>
</svg>
