<svg width="22" height="22" viewBox="0 0 22 22" fill="none" xmlns="http://www.w3.org/2000/svg">
<g id="teenyicons:compass-solid" clip-path="url(#clip0_481_2929)">
<path id="Vector" d="M8.23975 13.7603L10.0804 10.0789L13.7603 8.23973L11.9196 11.9211L8.23975 13.7603Z" fill="#12ACF8"/>
<path id="Vector_2" fill-rule="evenodd" clip-rule="evenodd" d="M0 11C0 8.08262 1.15893 5.28473 3.22183 3.22183C5.28473 1.15893 8.08262 0 11 0C13.9174 0 16.7153 1.15893 18.7782 3.22183C20.8411 5.28473 22 8.08262 22 11C22 13.9174 20.8411 16.7153 18.7782 18.7782C16.7153 20.8411 13.9174 22 11 22C8.08262 22 5.28473 20.8411 3.22183 18.7782C1.15893 16.7153 0 13.9174 0 11ZM16.0556 6.92853C16.1243 6.79098 16.148 6.63533 16.1233 6.48358C16.0987 6.33183 16.027 6.19165 15.9184 6.08287C15.8098 5.97408 15.6697 5.90218 15.518 5.87733C15.3663 5.85249 15.2106 5.87595 15.0729 5.9444L9.20627 8.87773C9.06427 8.94836 8.949 9.06312 8.87773 9.2048L5.9444 15.0715C5.87574 15.209 5.85205 15.3647 5.87667 15.5164C5.90129 15.6682 5.97298 15.8083 6.08161 15.9171C6.19023 16.0259 6.3303 16.0978 6.48201 16.1227C6.63373 16.1475 6.78941 16.1241 6.92707 16.0556L12.7937 13.1223C12.9357 13.0516 13.051 12.9369 13.1223 12.7952L16.0556 6.92853Z" fill="#12ACF8"/>
</g>
<defs>
<clipPath id="clip0_481_2929">
<rect width="22" height="22" fill="white"/>
</clipPath>
</defs>
</svg>
